<svg fill="currentColor" width="800px" height="800px" viewBox="0 0 32 32" xmlns="http://www.w3.org/2000/svg">
  <path d="M29.977 14.744l-13.25-13.24a1.48 1.48 0 0 0-2.107 0l-2.853 2.855 3.613 3.613a1.752 1.752 0 0 1 2.213 2.217l3.489 3.49a1.75 1.75 0 0 1 1.95 2.832c.034.023.063.051.094.077v8.589a1.75 1.75 0 1 1-2.217.94v-7.48l-3.26-3.261v10.381a1.753 1.753 0 1 1-2.4-.028 1.75 1.75 0 0 1-.35-2.326v-9.811l-3.5-3.5-9.277 9.273a1.481 1.481 0 0 0 0 2.107l13.25 13.25a1.478 1.478 0 0 0 2.107 0l13.25-13.241a1.49 1.49 0 0 0 .001-2.105z"/>
</svg>

