<svg fill="currentColor" width="800px" height="800px" viewBox="0 0 32 32" xmlns="http://www.w3.org/2000/svg">
  <path d="M18.774 19.7a3.727 3.727 0 0 0 3.376 2.078c1.418 0 2.324-.708 2.324-1.688 0-1.173-.931-1.587-2.491-2.272l-.856-.367c-2.469-1.087-4.11-2.451-4.11-5.33 0-2.652 2.02-4.672 5.177-4.672a5.561 5.561 0 0 1 5.33 3.108l-2.916 1.872a2.766 2.766 0 0 0-2.414-1.7c-1.1 0-1.8.7-1.8 1.587 0 1.11.7 1.524 2.2 2.131l.856.367c2.91 1.247 4.549 2.521 4.549 5.377 0 3.181-2.5 4.916-5.86 4.916a6.489 6.489 0 0 1-6.09-3.5zm-7.665-1.1c.826 1.3 1.577 2.4 3.376 2.4 1.722 0 2.809-.7 2.809-3.4V7.5h3.376v10.2c0 5.6-3.3 8.1-8.1 8.1a8.768 8.768 0 0 1-8.1-4.5z"/>
</svg>

