<svg fill="currentColor" width="800px" height="800px" viewBox="0 0 32 32" xmlns="http://www.w3.org/2000/svg">
  <path d="M11.622 24.74s-1.23.748 1.355.962c2.51.32 3.877.267 6.625-.16a10.02 10.02 0 001.595-.428s.855.64 1.82 1.067c-4.502 2.176-10.684.32-11.395-1.28zm-.8-3.473s-1.336 1.015 1.488 1.335c3.208.374 5.442.267 8.967-.32a3.26 3.26 0 001.282-.374s.96.748 1.82 1.175c-5.656 1.762-12.517.907-13.017-1.815zm14.163 5.656s1.015 1.122-1.122 1.815c-2.405.8-8.54.907-11.66.214-1.815-.374-2.51-.64-2.51-.64s.855.64 2.298.96c2.298.427 7.26.48 10.38-.107 1.488-.32 2.405-.748 2.405-.748zm-9.18-7.26s-1.55 1.282 1.07 1.815c3.315.748 6.09.855 9.82.214a5.06 5.06 0 001.55-.427s.748.64 1.488 1.07c-5.87 1.815-13.23 1.07-13.828-1.682zm-3.208-1.815s-1.282 1.07.64 1.55c2.298.534 4.17.64 6.625.427a9.12 9.12 0 001.815-.32s.64.748 1.282 1.07c-4.81 1.07-10.38.64-10.38-1.815zm15.5 3.1s1.07 1.175-.427 1.815c-2.298 1.07-7.26 1.282-10.38.748-1.282-.214-2.138-.427-2.138-.427s1.07.534 2.51.748c2.51.427 7.26.48 10.38-.214 1.282-.32 2.138-.64 2.138-.64zm-12.73-2.51s-1.282 1.07.534 1.55c2.51.534 5.87.64 8.54.32a12.1 12.1 0 001.815-.32s.748.64 1.39 1.07c-5.23.96-11.66.748-11.66-1.55zm13.017 2.405s.855.96-.32 1.488c-1.815.8-5.87 1.07-8.54.748-1.282-.16-1.815-.32-1.815-.32s.748.427 1.815.64c1.815.374 5.87.427 8.54-.107 1.282-.267 1.815-.534 1.815-.534zm2.138-1.07s.64.748-.214 1.175c-1.282.64-4.596.855-7.26.534-1.282-.16-1.815-.32-1.815-.32s.64.374 1.488.534c1.815.32 5.23.32 7.26-.16.96-.214 1.282-.427 1.282-.427z"/>
  <path d="M18.393 2.667s3.208 3.315-3.315 7.26c-5.23 3.208-1.488 5.23.427 4.596 1.815-.64 3.1-1.07 3.1-1.815s-2.138.107-3.315-.427c-1.07-.48-2.51-2.138 1.815-4.81 3.315-2.138 4.81-3.208 1.288-5.804zm-1.07 20.38c3.74-.32 6.09 2.138 6.09 2.138s-3.74 1.815-6.625 1.07c-2.51-.64-4.81-1.815-4.81-1.815s1.815 1.07 5.345-1.393z"/>
</svg>

