<svg fill="currentColor" width="800px" height="800px" viewBox="0 0 32 32" xmlns="http://www.w3.org/2000/svg">
  <path d="M8.08 22.168l-2.192-1.276v-2.584l2.192 1.276v2.584zm16.584-9.828l-2.192-1.276V8.48l2.192 1.276v3.86zm-2.192 5.456v-2.584l-2.192-1.276v2.584l2.192 1.276zm-9.536-10.928l-2.192-1.276V2.836l2.192 1.276v3.584zm4.384 11.384l2.192 1.276v2.584l-2.192-1.276v-2.584zm9.536-6.86l-2.192-1.276v-2.584l2.192 1.276v2.584zm-4.384 11.384v-2.584l-2.192-1.276v2.584l2.192 1.276zm-12.768-4.584l2.192 1.276v2.584l-2.192-1.276v-2.584zm2.192-5.456l-2.192-1.276V8.48l2.192 1.276v3.86zm4.384-2.584l-2.192-1.276V6.48l2.192 1.276v2.584zm4.992 3.276l-2.192-1.276v-2.584l2.192 1.276v2.584zm-4.992 10.584v-2.584l-2.192-1.276v2.584l2.192 1.276zm9.536 0l2.192 1.276v2.584l-2.192-1.276v-2.584zm-12.768-6.86l-2.192-1.276v-2.584l2.192 1.276v2.584z"/>
</svg>

